<?xml version="1.0" ?><svg enable-background="new 0 0 32 32" version="1.1" viewBox="0 0 32 32" xml:space="preserve" xmlns="http://www.w3.org/2000/svg" xmlns:xlink="http://www.w3.org/1999/xlink"><g id="Flat_copy_5"><g><rect height="22.627" transform="matrix(0.7071 -0.7071 0.7071 0.7071 -6.6274 16)" width="22.627" x="4.686" y="4.686"/><polygon fill="#FFB000" points="18.319,4.13 18.224,2.224 29.776,13.776 27.87,13.681   "/><polygon fill="#FFB000" points="13.681,27.87 13.776,29.776 2.224,18.224 4.13,18.319   "/></g><path d="M17.714,23.458H15.8h-1.915c0,0,0.005-1.136,0-1.915c-2.621,0.564-3.352-1.437-3.352-1.437   c-0.479-0.958-0.958-1.437-0.958-1.437c-0.958-0.569,0-0.479,0-0.479c0.958,0,1.437,0.958,1.437,0.958   c0.84,1.427,2.336,1.197,2.873,0.958c0-0.479,0.21-1.203,0.479-1.437c-2.092-0.236-3.833-1.437-3.833-3.831s0.481-2.873,0.96-3.352   c-0.097-0.236-0.498-1.109,0.015-2.394c0,0,0.941,0,1.899,1.437c0.475-0.475,1.915-0.479,2.395-0.479   c0.478,0,1.919,0.004,2.393,0.479c0.958-1.437,1.901-1.437,1.901-1.437c0.512,1.286,0.112,2.158,0.014,2.394   c0.479,0.479,0.958,0.958,0.958,3.352s-1.739,3.595-3.831,3.831c0.27,0.234,0.479,1.058,0.479,1.437L17.714,23.458L17.714,23.458z" fill="#FFFFFF" id="Cat_4_"/></g><g id="Layer_8"/></svg>