<?xml version="1.0" encoding="utf-8"?>
<!-- Generator: Adobe Illustrator 16.0.0, SVG Export Plug-In . SVG Version: 6.00 Build 0)  -->
<!DOCTYPE svg PUBLIC "-//W3C//DTD SVG 1.1//EN" "http://www.w3.org/Graphics/SVG/1.1/DTD/svg11.dtd">
<svg version="1.1" id="Calque_1" xmlns="http://www.w3.org/2000/svg" xmlns:xlink="http://www.w3.org/1999/xlink" x="0px" y="0px"
	 width="190.348px" height="143.589px" viewBox="0 0 190.348 143.589" enable-background="new 0 0 190.348 143.589"
	 xml:space="preserve">
<g>
	<path stroke="#F9AF15" stroke-width="0.2" stroke-miterlimit="10" d="M190.39,133.71c0,4.967-5.373,8.994-12,8.994H12
		c-6.627,0-12-4.027-12-8.994V8.995C0,4.027,5.372,0,12,0H178.39c6.627,0,12,4.027,12,8.995V133.71z"/>
	<g>
		<g id="FOUND">
			<path fill="#F9AF15" stroke="#000000" stroke-width="0.2" stroke-miterlimit="10" d="M87.129,105.289h14.209v1.578H88.873v11.84
				h11.592v1.578H88.873v14.666h-1.744V105.289z"/>
			<path fill="#F9AF15" stroke="#000000" stroke-width="0.2" stroke-miterlimit="10" d="M122.234,120.119
				c0,13.004-5.359,15.33-9.558,15.33c-5.691,0-9.597-3.822-9.597-15.33c0-11.507,4.153-15.328,9.597-15.328
				C118.578,104.791,122.234,108.612,122.234,120.119z M104.825,120.119c0,8.144,1.662,13.918,7.853,13.918
				c5.443,0,7.813-4.486,7.813-13.918c0-8.018-1.786-13.916-7.813-13.916C106.86,106.203,104.825,111.977,104.825,120.119z"/>
			<path fill="#F9AF15" stroke="#000000" stroke-width="0.2" stroke-miterlimit="10" d="M127.715,127.099
				c0,4.154,1.871,6.938,6.482,6.938c4.279,0,6.48-2.783,6.48-6.938v-21.811h1.745v21.478c0,6.688-4.112,8.683-8.227,8.683
				c-4.113,0-8.228-1.578-8.228-8.683v-21.478h1.744v21.811H127.715z"/>
			<path fill="#F9AF15" stroke="#000000" stroke-width="0.2" stroke-miterlimit="10" d="M149.151,105.289l12.923,26.92h0.082v-26.92
				h1.746v29.662h-2.286l-12.963-26.92h-0.083v26.92h-1.745v-29.662H149.151z"/>
			<path fill="#F9AF15" stroke="#000000" stroke-width="0.2" stroke-miterlimit="10" d="M168.678,105.289h6.771
				c6.273,0,10.68,2.658,10.68,14.83s-5.069,14.832-10.68,14.832h-6.771V105.289z M175.45,133.537c6.315,0,8.935-4.32,8.935-13.418
				s-2.119-13.418-8.935-13.418h-5.026v26.836H175.45z"/>
		</g>
		<g id="_x34_04">
			<g id="_x34_">
				<path fill="#FFFFFF" d="M31.701,57.736H2v-3.905L31.29,4.612h4.317v49.63h8.94v3.494h-8.94v19.626h-3.906V57.736z
					 M31.701,11.292h-0.206L5.905,54.243h25.796V11.292z"/>
			</g>
			<path id="_x30_" fill="#FFFFFF" d="M95.91,7.644c19.626,0,35.592,15.964,35.592,35.586S115.536,78.815,95.91,78.815
				c-19.625,0-35.592-15.963-35.592-35.585C60.318,23.607,76.285,7.644,95.91,7.644 M95.91,4C74.24,4,56.674,21.564,56.674,43.23
				S74.24,82.458,95.91,82.458c21.67,0,39.235-17.563,39.235-39.229C135.146,21.564,117.58,4,95.91,4L95.91,4z"/>
			<g id="_x34__1_">
				<path fill="#FFFFFF" d="M174.799,57.736h-29.701v-3.905l29.29-49.219h4.314v49.63h8.941v3.494h-8.941v19.626h-3.903V57.736z
					 M174.799,11.292h-0.206l-25.591,42.951h25.797V11.292L174.799,11.292z"/>
			</g>
		</g>
		<g id="CODE">
			<path fill="#FFFFFF" d="M19.911,113.805c0-3.988-2.119-7.603-6.48-7.603c-5.9,0-7.854,5.525-7.854,13.875
				c0,7.978,1.621,13.959,7.604,13.959c5.733,0,7.104-6.729,7.104-9.057h1.746c0,3.488-1.746,10.469-9.141,10.469
				c-6.44,0-9.059-5.691-9.059-15.289c0-9.305,2.619-15.369,9.517-15.369c6.938,0,8.309,6.105,8.309,9.015H19.911z"/>
			<path fill="#FFFFFF" d="M43.757,120.119c0,13.004-5.359,15.33-9.556,15.33c-5.692,0-9.598-3.822-9.598-15.33
				c0-11.507,4.155-15.328,9.598-15.328C40.102,104.791,43.757,108.612,43.757,120.119z M26.35,120.119
				c0,8.144,1.661,13.918,7.853,13.918c5.443,0,7.811-4.486,7.811-13.918c0-8.018-1.787-13.916-7.811-13.916
				C28.384,106.203,26.35,111.977,26.35,120.119z"/>
			<path fill="#FFFFFF" d="M47.869,105.289h6.771c6.275,0,10.68,2.658,10.68,14.83s-5.07,14.832-10.681,14.832h-6.771
				L47.869,105.289L47.869,105.289z M54.639,133.537c6.317,0,8.934-4.32,8.934-13.418s-2.118-13.418-8.934-13.418h-5.026v26.836
				H54.639z"/>
			<path fill="#FFFFFF" d="M69.429,105.289h14.168v1.578H71.175v11.84h11.593v1.578H71.175v13.086h12.798v1.58H69.43L69.429,105.289
				L69.429,105.289z"/>
		</g>
		<g id="LIGNE">
			<rect x="2.496" y="147.042" fill="#FFFFFF" width="189.895" height="0.547"/>
		</g>
	</g>
	<circle fill="#F9AF15" stroke="#000000" stroke-width="0.2" stroke-miterlimit="10" cx="81.962" cy="28.6" r="5.944"/>
	<circle fill="#F9AF15" stroke="#000000" stroke-width="0.2" stroke-miterlimit="10" cx="110.685" cy="28.6" r="5.943"/>
	<g>
		<g>
			<defs>
				<rect id="SVGID_1_" x="47.959" y="49.777" width="98.947" height="46.314"/>
			</defs>
			<clipPath id="SVGID_2_">
				<use xlink:href="#SVGID_1_"  overflow="visible"/>
			</clipPath>
			
				<circle clip-path="url(#SVGID_2_)" fill="none" stroke="#F9AF15" stroke-width="5" stroke-miterlimit="10" cx="95.687" cy="43.166" r="25.399"/>
		</g>
	</g>
</g>
</svg>
