<?xml version="1.0" encoding="utf-8"?>
<!-- Generator: Adobe Illustrator 16.0.0, SVG Export Plug-In . SVG Version: 6.00 Build 0)  -->
<!DOCTYPE svg PUBLIC "-//W3C//DTD SVG 1.1//EN" "http://www.w3.org/Graphics/SVG/1.1/DTD/svg11.dtd">
<svg version="1.1" id="Calque_1" xmlns="http://www.w3.org/2000/svg" xmlns:xlink="http://www.w3.org/1999/xlink" x="0px" y="0px"
	 width="195.174px" height="46.278px" viewBox="0 0 195.174 46.278" enable-background="new 0 0 195.174 46.278"
	 xml:space="preserve">
<g>
	<rect y="0.151" fill="#010202" width="195.174" height="46.011"/>
	<polygon fill="#F9AF15" points="173.795,31.614 189.863,46.162 4.349,46.125 20.414,31.593 	"/>
	<polygon fill="#F9AF15" points="20.417,14.665 4.349,0.117 189.863,0.153 173.799,14.686 	"/>
	<rect x="4.349" y="2.501" fill="#010202" width="186.535" height="41.272"/>
	<g>
		<text transform="matrix(1 0 0 1 43.4165 21.9141)" fill="#FFFFFF" font-family="'CenturyGothic'" font-size="18.7358">Onlineformapro</text>
		<text transform="matrix(1 0 0 1 44.0317 35.8018)" fill="#FFFFFF" font-family="'CenturyGothic'" font-size="10.4345">L’assurance de l’excellence</text>
		<g>
			<g>
				<path fill="#FFFFFF" d="M32.201,34.936c-4.343,2.958-12.889,4.231-17.411,0.183c4.596,1.652,9.565,0.805,14.527-1.421
					c4.945-2.337,8.988-7.673,9.437-11.023C39.493,25.842,36.504,32.005,32.201,34.936z"/>
				<path fill="#FFFFFF" d="M29.397,26.81c-2.225,1.962-5.947,4.188-9.233,5.132c-5.046,1.449-10.912,0.233-12.642-5.749l-0.05-0.18
					c0.61,1.591,5.285,6.224,20.182-6.185c4.425-3.686,6.786-4.896,9.169-4.154c0.795,0.302,1.047,0.515,1.668,1.329
					C36.875,17.782,35.476,21.457,29.397,26.81z"/>
				<path fill="#FFFFFF" d="M20.468,16.579c-2.317,1.717-4.355,3.387-7.355,4.528c-4.324,1.429-6.536,0-5.766-3.363l0.199-0.748
					c0.234-0.703,0.576-1.629,0.86-2.312c-0.648,2.09,4.009,0.521,6.689-0.905c2.271-1.211,4.233-2.955,6.676-3.869
					c0.932-0.352,2.09-0.783,4.399-0.275c1.024,0.245,2.62,0.781,2.849,0.955C25.499,11.516,22.612,14.99,20.468,16.579z"/>
				<path fill="#FFFFFF" d="M15.841,9.958c-0.764,0.465-4.085,2.61-5.162,1.814c-0.008-0.313-0.13-1.814,3.028-3.36
					c1.349-0.66,3.751-0.971,5.865-0.368C17.904,8.352,17.445,8.986,15.841,9.958z"/>
			</g>
		</g>
	</g>
</g>
</svg>
