<?xml version="1.0" encoding="utf-8"?>
<!-- Generator: Adobe Illustrator 16.0.0, SVG Export Plug-In . SVG Version: 6.00 Build 0)  -->
<!DOCTYPE svg PUBLIC "-//W3C//DTD SVG 1.1//EN" "http://www.w3.org/Graphics/SVG/1.1/DTD/svg11.dtd">
<svg version="1.1" id="Calque_1" xmlns="http://www.w3.org/2000/svg" xmlns:xlink="http://www.w3.org/1999/xlink" x="0px" y="0px"
	 width="173.628px" height="46.278px" viewBox="0 0 173.628 46.278" enable-background="new 0 0 173.628 46.278"
	 xml:space="preserve">
<g>
	<rect x="0.998" y="0.266" fill="#010202" width="173.633" height="46.012"/>
	<polygon fill="#F9AF15" points="18.499,13.043 4.091,0 170.423,0.031 156.02,13.063 	"/>
	<polygon fill="#F9AF15" points="156.016,33.02 170.423,46.063 4.091,46.032 18.495,32.999 	"/>
	<rect x="2.091" y="2.099" fill="#010202" width="165.864" height="41.273"/>
	<g>
		<g id="ligne_1_">
			<rect x="34.857" y="29.721" fill="#FFFFFF" width="109.778" height="0.277"/>
		</g>
		<g>
			<path fill="#FEFEFF" d="M39.514,10.704h2.892l3.724,14.142h-2.357l-0.871-3.466h-4.14l-0.911,3.466h-2.357L39.514,10.704z
				 M42.525,19.576L40.9,12.604h-0.039l-1.684,6.972H42.525z"/>
			<path fill="#FEFEFF" d="M55.575,19.776v0.296c0,2.557-1.03,5.051-4.357,5.051c-3.565,0-4.675-2.297-4.675-7.349
				c0-5.05,1.109-7.349,4.694-7.349c4.021,0,4.26,2.972,4.26,4.437v0.259h-2.259v-0.238c0-1.307-0.396-2.813-2.021-2.753
				c-1.664,0-2.416,1.03-2.416,5.585s0.752,5.706,2.416,5.706c1.882,0,2.101-2.1,2.101-3.408v-0.236H55.575z"/>
			<path fill="#FEFEFF" d="M65.615,19.776v0.296c0,2.557-1.029,5.051-4.358,5.051c-3.564,0-4.674-2.297-4.674-7.349
				c0-5.05,1.11-7.349,4.695-7.349c4.021,0,4.258,2.972,4.258,4.437v0.259h-2.257v-0.238c0-1.307-0.396-2.813-2.021-2.753
				c-1.663,0-2.416,1.03-2.416,5.585s0.753,5.706,2.416,5.706c1.883,0,2.101-2.1,2.101-3.408v-0.236H65.615z"/>
			<path fill="#FEFEFF" d="M66.96,10.704h7.646v1.901h-5.388v3.921h5.071v1.902h-5.071v4.517h5.546v1.901H66.96V10.704z"/>
			<path fill="#FEFEFF" d="M78.154,20.47v0.354c0,1.725,0.754,2.597,2.318,2.597c1.426,0,2.14-1.011,2.14-2.061
				c0-1.485-0.753-2.14-2.021-2.516l-1.544-0.535c-2.061-0.793-2.953-1.862-2.953-3.882c0-2.576,1.744-4.002,4.399-4.002
				c3.624,0,4.001,2.258,4.001,3.725v0.316h-2.259v-0.298c0-1.287-0.575-2.04-1.98-2.04c-0.971,0-1.902,0.535-1.902,2.04
				c0,1.209,0.615,1.822,2.12,2.397l1.525,0.555c1.999,0.713,2.872,1.803,2.872,3.743c0,3.011-1.822,4.259-4.675,4.259
				c-3.506,0-4.298-2.337-4.298-4.317V20.47H78.154z"/>
			<path fill="#FEFEFF" d="M88.195,20.47v0.354c0,1.725,0.753,2.597,2.316,2.597c1.427,0,2.14-1.011,2.14-2.061
				c0-1.485-0.753-2.14-2.021-2.516l-1.545-0.535c-2.06-0.793-2.951-1.862-2.951-3.882c0-2.576,1.743-4.002,4.397-4.002
				c3.625,0,4,2.258,4,3.725v0.316h-2.258v-0.298c0-1.287-0.573-2.04-1.979-2.04c-0.971,0-1.902,0.535-1.902,2.04
				c0,1.209,0.614,1.822,2.119,2.397l1.525,0.555c2.001,0.713,2.873,1.803,2.873,3.743c0,3.011-1.823,4.259-4.676,4.259
				c-3.506,0-4.298-2.337-4.298-4.317V20.47H88.195z"/>
		</g>
		<g>
			<path fill="#FFFFFF" d="M126.024,12.406h-1.861v10.736h1.861c1.863,0,2.636-1.228,2.636-5.368
				C128.66,13.793,127.986,12.406,126.024,12.406z"/>
			<path fill="#FFFFFF" d="M115.418,12.129c-1.347,0-2.417,0.833-2.417,5.585c0,4.873,1.07,5.706,2.417,5.706
				s2.417-0.833,2.417-5.706C117.835,12.962,116.765,12.129,115.418,12.129z"/>
			<path fill="#FFFFFF" d="M97.117,4.759v25.163h47.519V4.759H97.117z M109.736,20.072c0,2.557-1.03,5.051-4.358,5.051
				c-3.565,0-4.675-2.297-4.675-7.349c0-5.05,1.109-7.349,4.694-7.349c4.021,0,4.26,2.972,4.26,4.437v0.259h-2.259v-0.238
				c0-1.307-0.397-2.813-2.021-2.753c-1.664,0-2.416,1.03-2.416,5.585s0.752,5.706,2.416,5.706c1.882,0,2.1-2.1,2.1-3.408v-0.236
				h2.259V20.072z M115.418,25.123c-3.248,0-4.675-2.297-4.675-7.349c0-5.05,1.427-7.349,4.675-7.349s4.675,2.299,4.675,7.349
				C120.093,22.826,118.667,25.123,115.418,25.123z M125.925,24.846h-4.021V10.704h4.021c4.437,0,4.993,2.892,4.993,7.071
				C130.918,21.955,130.362,24.846,125.925,24.846z M140.534,24.846h-7.804V10.704h7.645v1.901h-5.387v3.921h5.069v1.902h-5.069
				v4.517h5.546V24.846z"/>
		</g>
		<g>
			<path fill="#FFFFFF" d="M18.694,17.449l11.015-4.92v1.873l-8.794,3.853l8.794,3.854v1.872L18.694,19.06V17.449z"/>
		</g>
		<g>
			<path fill="#FFFFFF" d="M158.465,19.06l-11.015,4.921v-1.872l8.794-3.854l-8.794-3.853v-1.873l11.015,4.92V19.06z"/>
		</g>
		<g>
			<path fill="#FEFEFF" d="M36.239,38.948c0,0.875,0.566,1.548,1.557,1.548c0.951,0,1.585-0.682,1.585-1.557
				c0-0.895-0.481-1.201-1.249-1.471L37.354,37.2c-0.903-0.309-1.393-0.75-1.393-1.683c0-1.105,0.759-1.787,1.835-1.787
				c1.269,0,1.836,0.721,1.836,1.864h-0.404c0-0.922-0.423-1.537-1.393-1.537c-0.769,0-1.47,0.354-1.47,1.422
				c0,0.759,0.413,1.124,1.008,1.325l1.019,0.356c0.883,0.308,1.393,0.74,1.393,1.749c0,1.22-0.903,1.912-1.989,1.912
				c-1.585,0-1.96-1.114-1.96-1.777v-0.451h0.404V38.948z"/>
			<path fill="#FEFEFF" d="M59.699,35.816c0-0.924-0.49-1.759-1.499-1.759c-1.365,0-1.816,1.278-1.816,3.209
				c0,1.845,0.374,3.229,1.758,3.229c1.326,0,1.643-1.557,1.643-2.096h0.404c0,0.808-0.404,2.422-2.114,2.422
				c-1.49,0-2.095-1.316-2.095-3.536c0-2.152,0.605-3.556,2.202-3.556c1.604,0,1.922,1.412,1.922,2.086H59.699z"/>
			<path fill="#FEFEFF" d="M76.5,33.846h0.405v3.008h3.006v-3.008h0.404v6.861h-0.404v-3.488h-3.006v3.488H76.5V33.846z"/>
			<path fill="#FEFEFF" d="M101.191,37.276c0,3.009-1.24,3.546-2.211,3.546c-1.315,0-2.219-0.885-2.219-3.546
				c0-2.662,0.961-3.546,2.219-3.546C100.345,33.73,101.191,34.614,101.191,37.276z M97.165,37.276c0,1.885,0.385,3.22,1.815,3.22
				c1.26,0,1.808-1.039,1.808-3.22c0-1.854-0.414-3.219-1.808-3.219C97.635,34.058,97.165,35.394,97.165,37.276z"/>
			<path fill="#FEFEFF" d="M121.845,37.276c0,3.009-1.239,3.546-2.209,3.546c-1.317,0-2.221-0.885-2.221-3.546
				c0-2.662,0.961-3.546,2.221-3.546C121,33.73,121.845,34.614,121.845,37.276z M117.82,37.276c0,1.885,0.385,3.22,1.816,3.22
				c1.258,0,1.806-1.039,1.806-3.22c0-1.854-0.412-3.219-1.806-3.219C118.291,34.058,117.82,35.394,117.82,37.276z"/>
			<path fill="#FEFEFF" d="M138.291,33.846h0.403v6.497h2.873v0.364h-3.276V33.846z"/>
		</g>
	</g>
</g>
</svg>
