<?xml version="1.0" encoding="utf-8"?>
<!-- Generator: Adobe Illustrator 16.0.0, SVG Export Plug-In . SVG Version: 6.00 Build 0)  -->
<!DOCTYPE svg PUBLIC "-//W3C//DTD SVG 1.1//EN" "http://www.w3.org/Graphics/SVG/1.1/DTD/svg11.dtd">
<svg version="1.1" id="Calque_1" xmlns="http://www.w3.org/2000/svg" xmlns:xlink="http://www.w3.org/1999/xlink" x="0px" y="0px"
	 width="595.28px" height="340.157px" viewBox="0 0 595.28 340.157" enable-background="new 0 0 595.28 340.157"
	 xml:space="preserve">
<g>
	<defs>
		<rect id="SVGID_1_" x="1.122" y="-0.001" width="595.284" height="340.158"/>
	</defs>
	<clipPath id="SVGID_2_">
		<use xlink:href="#SVGID_1_"  overflow="visible"/>
	</clipPath>
	<g clip-path="url(#SVGID_2_)">
		<line fill="none" x1="294.64" y1="282.216" x2="268.467" y2="330.832"/>
		<path fill="none" d="M248.631,282.216c0,25.411,20.598,46.011,46.008,46.011c25.412,0,46.009-20.6,46.009-46.011
			c0-25.408-20.597-46.008-46.009-46.008C269.229,236.208,248.631,256.809,248.631,282.216z"/>
		<path fill="none" d="M239.429,282.216c0,30.494,24.722,55.213,55.211,55.213c30.49,0,55.213-24.719,55.213-55.213
			c0-30.491-24.723-55.209-55.213-55.209C264.15,227.007,239.429,251.726,239.429,282.216z"/>
		<polyline fill="none" points="294.64,282.216 472.267,279.552 294.64,282.216 117.013,284.882 294.64,282.216 297.307,459.844 
			294.64,282.216 291.973,104.591 294.64,282.216 497.811,232.223 294.64,282.216 91.471,332.212 294.64,282.216 344.636,485.391 
			294.64,282.216 244.644,79.044 294.64,282.216 550.743,215.894 294.64,282.216 38.537,348.542 294.64,282.216 360.96,538.321 
			294.64,282.216 228.319,26.115 294.64,282.216 320.754,293.385 294.64,282.216 268.527,271.051 294.64,282.216 283.471,308.331 
			294.64,282.216 305.809,256.104 294.64,282.216 447.798,265.96 294.64,282.216 141.483,298.476 294.64,282.216 310.9,435.372 
			294.64,282.216 278.383,129.064 294.64,282.216 510.328,253.133 294.64,282.216 78.954,311.302 294.64,282.216 323.725,497.904 
			294.64,282.216 265.553,66.531 294.64,282.216 401.65,302.372 294.64,282.216 187.63,262.064 294.64,282.216 274.486,389.229 
			294.64,282.216 314.791,175.208 294.64,282.216 510.842,408.784 294.64,282.216 78.439,155.652 294.64,282.216 168.074,498.42 
			294.64,282.216 421.208,66.017 294.64,282.216 337.632,267.616 294.64,282.216 251.65,296.819 294.64,282.216 309.239,325.207 
			294.64,282.216 280.042,239.228 294.64,282.216 431.499,406.888 294.64,282.216 157.78,157.549 294.64,282.216 169.969,419.078 
			294.64,282.216 419.313,145.358 294.64,282.216 337.702,331.221 294.64,282.216 251.579,233.215 294.64,282.216 245.64,325.28 
			294.64,282.216 343.642,239.156 294.64,282.216 421.283,289.895 294.64,282.216 167.992,274.54 294.64,282.216 286.967,408.864 
			294.64,282.216 302.315,155.571 294.64,282.216 344.121,283.143 294.64,282.216 245.158,281.292 294.64,282.216 293.715,331.696 
			294.64,282.216 295.566,232.739 294.64,282.216 416.497,286.949 294.64,282.216 172.784,277.486 294.64,282.216 289.907,404.077 
			294.64,282.216 299.374,160.359 294.64,282.216 476.955,433.801 294.64,282.216 112.325,130.633 294.64,282.216 143.056,464.532 
			294.64,282.216 446.226,99.903 		"/>
		<radialGradient id="SVGID_3_" cx="294.6387" cy="282.2178" r="110.4233" gradientUnits="userSpaceOnUse">
			<stop  offset="0" style="stop-color:#000000"/>
			<stop  offset="0.73" style="stop-color:#984023"/>
			<stop  offset="1" style="stop-color:#000000"/>
		</radialGradient>
		<circle opacity="0.15" fill="url(#SVGID_3_)" cx="294.639" cy="282.216" r="110.423"/>
		<radialGradient id="SVGID_4_" cx="294.6406" cy="282.2178" r="55.2117" gradientUnits="userSpaceOnUse">
			<stop  offset="0.15" style="stop-color:#FFFFFF"/>
			<stop  offset="0.2134" style="stop-color:#E0CBC9"/>
			<stop  offset="0.2931" style="stop-color:#C09593"/>
			<stop  offset="0.362" style="stop-color:#AA706F"/>
			<stop  offset="0.4166" style="stop-color:#9E5B5C"/>
			<stop  offset="0.45" style="stop-color:#995356"/>
			<stop  offset="0.5442" style="stop-color:#7E342F"/>
			<stop  offset="0.6472" style="stop-color:#5C1A0C"/>
			<stop  offset="0.7362" style="stop-color:#3F0800"/>
			<stop  offset="0.8068" style="stop-color:#1F0200"/>
			<stop  offset="0.85" style="stop-color:#000000"/>
			<stop  offset="0.856" style="stop-color:#120100"/>
			<stop  offset="0.8623" style="stop-color:#2F0200"/>
			<stop  offset="0.8686" style="stop-color:#430700"/>
			<stop  offset="0.875" style="stop-color:#5A1100"/>
			<stop  offset="0.8815" style="stop-color:#761D04"/>
			<stop  offset="0.888" style="stop-color:#952A10"/>
			<stop  offset="0.8945" style="stop-color:#B63B1D"/>
			<stop  offset="0.9" style="stop-color:#D34E29"/>
			<stop  offset="0.9063" style="stop-color:#BE4020"/>
			<stop  offset="0.916" style="stop-color:#A02F14"/>
			<stop  offset="0.9262" style="stop-color:#822209"/>
			<stop  offset="0.9367" style="stop-color:#681700"/>
			<stop  offset="0.9475" style="stop-color:#510D00"/>
			<stop  offset="0.9588" style="stop-color:#3D0500"/>
			<stop  offset="0.9707" style="stop-color:#290200"/>
			<stop  offset="0.9838" style="stop-color:#0E0100"/>
			<stop  offset="1" style="stop-color:#000000"/>
		</radialGradient>
		<path opacity="0.5" fill="url(#SVGID_4_)" d="M239.429,282.216c0,30.494,24.722,55.213,55.211,55.213
			c30.49,0,55.213-24.719,55.213-55.213c0-30.491-24.723-55.209-55.213-55.209C264.15,227.007,239.429,251.726,239.429,282.216z"/>
		<radialGradient id="SVGID_5_" cx="294.6396" cy="282.2178" r="46.0093" gradientUnits="userSpaceOnUse">
			<stop  offset="0.15" style="stop-color:#FFFFFF"/>
			<stop  offset="0.2824" style="stop-color:#A9A09D"/>
			<stop  offset="0.4253" style="stop-color:#655A55"/>
			<stop  offset="0.5636" style="stop-color:#382F2A"/>
			<stop  offset="0.6936" style="stop-color:#1C150E"/>
			<stop  offset="0.8134" style="stop-color:#090500"/>
			<stop  offset="0.9192" style="stop-color:#010100"/>
			<stop  offset="1" style="stop-color:#000000"/>
		</radialGradient>
		<path fill="url(#SVGID_5_)" d="M248.631,282.216c0,25.411,20.598,46.011,46.008,46.011c25.412,0,46.009-20.6,46.009-46.011
			c0-25.408-20.597-46.008-46.009-46.008C269.229,236.208,248.631,256.809,248.631,282.216z"/>
		<polyline opacity="0.03" fill="none" stroke="#FFFFFF" stroke-width="2" stroke-miterlimit="10" points="294.64,282.216 
			472.267,279.552 294.64,282.216 117.013,284.882 294.64,282.216 297.307,459.844 294.64,282.216 291.973,104.591 294.64,282.216 
			497.811,232.223 294.64,282.216 91.471,332.212 294.64,282.216 344.636,485.391 294.64,282.216 244.644,79.044 294.64,282.216 
			550.743,215.894 294.64,282.216 38.537,348.542 294.64,282.216 360.96,538.321 294.64,282.216 228.319,26.115 294.64,282.216 
			320.754,293.385 294.64,282.216 268.527,271.051 294.64,282.216 283.471,308.331 294.64,282.216 305.809,256.104 294.64,282.216 
			447.798,265.96 294.64,282.216 141.483,298.476 294.64,282.216 310.9,435.372 294.64,282.216 278.383,129.064 294.64,282.216 
			510.328,253.133 294.64,282.216 78.954,311.302 294.64,282.216 323.725,497.904 294.64,282.216 265.553,66.531 294.64,282.216 
			401.65,302.372 294.64,282.216 187.63,262.064 294.64,282.216 274.486,389.229 294.64,282.216 314.791,175.208 294.64,282.216 
			510.842,408.784 294.64,282.216 78.439,155.652 294.64,282.216 168.074,498.42 294.64,282.216 421.208,66.017 294.64,282.216 
			337.632,267.616 294.64,282.216 251.65,296.819 294.64,282.216 309.239,325.207 294.64,282.216 280.042,239.228 294.64,282.216 
			431.499,406.888 294.64,282.216 157.78,157.549 294.64,282.216 169.969,419.078 294.64,282.216 419.313,145.358 294.64,282.216 
			337.702,331.221 294.64,282.216 251.579,233.215 294.64,282.216 245.64,325.28 294.64,282.216 343.642,239.156 294.64,282.216 
			421.283,289.895 294.64,282.216 167.992,274.54 294.64,282.216 286.967,408.864 294.64,282.216 302.315,155.571 294.64,282.216 
			344.121,283.143 294.64,282.216 245.158,281.292 294.64,282.216 293.715,331.696 294.64,282.216 295.566,232.739 294.64,282.216 
			416.497,286.949 294.64,282.216 172.784,277.486 294.64,282.216 289.907,404.077 294.64,282.216 299.374,160.359 294.64,282.216 
			476.955,433.801 294.64,282.216 112.325,130.633 294.64,282.216 143.056,464.532 294.64,282.216 446.226,99.903 		"/>
	</g>
</g>
</svg>
