<?xml version="1.0" encoding="utf-8"?>
<!-- Generator: Adobe Illustrator 16.0.0, SVG Export Plug-In . SVG Version: 6.00 Build 0)  -->
<!DOCTYPE svg PUBLIC "-//W3C//DTD SVG 1.1//EN" "http://www.w3.org/Graphics/SVG/1.1/DTD/svg11.dtd">
<svg version="1.1" id="Calque_1" xmlns="http://www.w3.org/2000/svg" xmlns:xlink="http://www.w3.org/1999/xlink" x="0px" y="0px"
	 width="595.28px" height="236.455px" viewBox="0 0 595.28 236.455" enable-background="new 0 0 595.28 236.455"
	 xml:space="preserve">
<g>
	<defs>
		<rect id="SVGID_1_" x="49.137" y="0" width="497.004" height="236.455"/>
	</defs>
	<clipPath id="SVGID_2_">
		<use xlink:href="#SVGID_1_"  overflow="visible"/>
	</clipPath>
	<g clip-path="url(#SVGID_2_)">
		<line fill="none" x1="309.504" y1="235.624" x2="287.652" y2="276.212"/>
		<path fill="none" d="M271.091,235.624c0,21.215,17.197,38.415,38.413,38.415c21.217,0,38.413-17.2,38.413-38.415
			c0-21.213-17.196-38.412-38.413-38.412C288.288,197.212,271.091,214.411,271.091,235.624z"/>
		<path fill="none" d="M263.409,235.624c0,25.459,20.64,46.097,46.095,46.097c25.457,0,46.098-20.638,46.098-46.097
			c0-25.457-20.641-46.096-46.098-46.096C284.048,189.528,263.409,210.167,263.409,235.624z"/>
		<polyline fill="none" points="309.504,235.624 457.806,233.399 309.504,235.624 161.204,237.85 309.504,235.624 311.73,383.926 
			309.504,235.624 307.277,87.324 309.504,235.624 479.132,193.884 309.504,235.624 139.878,277.366 309.504,235.624 
			351.246,405.254 309.504,235.624 267.762,65.995 309.504,235.624 523.325,180.251 309.504,235.624 95.684,291 309.504,235.624 
			364.875,449.445 309.504,235.624 254.133,21.804 309.504,235.624 331.308,244.948 309.504,235.624 287.703,226.302 
			309.504,235.624 300.18,257.427 309.504,235.624 318.829,213.823 309.504,235.624 437.376,222.052 309.504,235.624 
			181.634,249.198 309.504,235.624 323.08,363.494 309.504,235.624 295.931,107.756 309.504,235.624 489.583,211.342 
			309.504,235.624 129.427,259.907 309.504,235.624 333.787,415.702 309.504,235.624 285.219,55.547 309.504,235.624 
			398.848,252.451 309.504,235.624 220.161,218.798 309.504,235.624 292.678,324.968 309.504,235.624 326.328,146.282 
			309.504,235.624 490.013,341.294 309.504,235.624 128.998,129.956 309.504,235.624 203.833,416.132 309.504,235.624 
			415.177,55.118 309.504,235.624 345.398,223.434 309.504,235.624 273.612,247.815 309.504,235.624 321.693,271.517 
			309.504,235.624 297.316,199.732 309.504,235.624 423.769,339.711 309.504,235.624 195.24,131.538 309.504,235.624 
			205.417,349.889 309.504,235.624 413.595,121.36 309.504,235.624 345.457,276.538 309.504,235.624 273.553,194.712 
			309.504,235.624 268.594,271.578 309.504,235.624 350.416,199.673 309.504,235.624 415.239,242.034 309.504,235.624 
			203.765,229.215 309.504,235.624 303.098,341.362 309.504,235.624 315.912,129.888 309.504,235.624 350.816,236.397 
			309.504,235.624 268.192,234.853 309.504,235.624 308.732,276.935 309.504,235.624 310.277,194.315 309.504,235.624 
			411.243,239.575 309.504,235.624 207.766,231.674 309.504,235.624 305.553,337.365 309.504,235.624 313.457,133.885 
			309.504,235.624 461.72,362.183 309.504,235.624 157.29,109.067 309.504,235.624 182.947,387.84 309.504,235.624 436.063,83.41 		
			"/>
		<radialGradient id="SVGID_3_" cx="309.5039" cy="235.6245" r="92.1929" gradientUnits="userSpaceOnUse">
			<stop  offset="0" style="stop-color:#000000"/>
			<stop  offset="0.73" style="stop-color:#984023"/>
			<stop  offset="1" style="stop-color:#000000"/>
		</radialGradient>
		<circle opacity="0.15" fill="url(#SVGID_3_)" cx="309.504" cy="235.624" r="92.193"/>
		<radialGradient id="SVGID_4_" cx="309.5049" cy="235.625" r="46.0964" gradientUnits="userSpaceOnUse">
			<stop  offset="0.15" style="stop-color:#FFFFFF"/>
			<stop  offset="0.2134" style="stop-color:#E0CBC9"/>
			<stop  offset="0.2931" style="stop-color:#C09593"/>
			<stop  offset="0.362" style="stop-color:#AA706F"/>
			<stop  offset="0.4166" style="stop-color:#9E5B5C"/>
			<stop  offset="0.45" style="stop-color:#995356"/>
			<stop  offset="0.5442" style="stop-color:#7E342F"/>
			<stop  offset="0.6472" style="stop-color:#5C1A0C"/>
			<stop  offset="0.7362" style="stop-color:#3F0800"/>
			<stop  offset="0.8068" style="stop-color:#1F0200"/>
			<stop  offset="0.85" style="stop-color:#000000"/>
			<stop  offset="0.856" style="stop-color:#120100"/>
			<stop  offset="0.8623" style="stop-color:#2F0200"/>
			<stop  offset="0.8686" style="stop-color:#430700"/>
			<stop  offset="0.875" style="stop-color:#5A1100"/>
			<stop  offset="0.8815" style="stop-color:#761D04"/>
			<stop  offset="0.888" style="stop-color:#952A10"/>
			<stop  offset="0.8945" style="stop-color:#B63B1D"/>
			<stop  offset="0.9" style="stop-color:#D34E29"/>
			<stop  offset="0.9063" style="stop-color:#BE4020"/>
			<stop  offset="0.916" style="stop-color:#A02F14"/>
			<stop  offset="0.9262" style="stop-color:#822209"/>
			<stop  offset="0.9367" style="stop-color:#681700"/>
			<stop  offset="0.9475" style="stop-color:#510D00"/>
			<stop  offset="0.9588" style="stop-color:#3D0500"/>
			<stop  offset="0.9707" style="stop-color:#290200"/>
			<stop  offset="0.9838" style="stop-color:#0E0100"/>
			<stop  offset="1" style="stop-color:#000000"/>
		</radialGradient>
		<path opacity="0.5" fill="url(#SVGID_4_)" d="M263.409,235.624c0,25.459,20.64,46.097,46.095,46.097
			c25.457,0,46.098-20.638,46.098-46.097c0-25.457-20.641-46.096-46.098-46.096C284.048,189.528,263.409,210.167,263.409,235.624z"
			/>
		<radialGradient id="SVGID_5_" cx="309.5039" cy="235.625" r="38.4133" gradientUnits="userSpaceOnUse">
			<stop  offset="0.15" style="stop-color:#FFFFFF"/>
			<stop  offset="0.2824" style="stop-color:#A9A09D"/>
			<stop  offset="0.4253" style="stop-color:#655A55"/>
			<stop  offset="0.5636" style="stop-color:#382F2A"/>
			<stop  offset="0.6936" style="stop-color:#1C150E"/>
			<stop  offset="0.8134" style="stop-color:#090500"/>
			<stop  offset="0.9192" style="stop-color:#010100"/>
			<stop  offset="1" style="stop-color:#000000"/>
		</radialGradient>
		<path fill="url(#SVGID_5_)" d="M271.091,235.624c0,21.215,17.197,38.415,38.413,38.415c21.217,0,38.413-17.2,38.413-38.415
			c0-21.213-17.196-38.412-38.413-38.412C288.288,197.212,271.091,214.411,271.091,235.624z"/>
		<polyline opacity="0.03" fill="none" stroke="#FFFFFF" stroke-width="2" stroke-miterlimit="10" points="309.504,235.624 
			457.806,233.399 309.504,235.624 161.204,237.85 309.504,235.624 311.73,383.926 309.504,235.624 307.277,87.324 309.504,235.624 
			479.132,193.884 309.504,235.624 139.878,277.366 309.504,235.624 351.246,405.254 309.504,235.624 267.762,65.995 
			309.504,235.624 523.325,180.251 309.504,235.624 95.684,291 309.504,235.624 364.875,449.445 309.504,235.624 254.133,21.804 
			309.504,235.624 331.308,244.948 309.504,235.624 287.703,226.302 309.504,235.624 300.18,257.427 309.504,235.624 
			318.829,213.823 309.504,235.624 437.376,222.052 309.504,235.624 181.634,249.198 309.504,235.624 323.08,363.494 
			309.504,235.624 295.931,107.756 309.504,235.624 489.583,211.342 309.504,235.624 129.427,259.907 309.504,235.624 
			333.787,415.702 309.504,235.624 285.219,55.547 309.504,235.624 398.848,252.451 309.504,235.624 220.161,218.798 
			309.504,235.624 292.678,324.968 309.504,235.624 326.328,146.282 309.504,235.624 490.013,341.294 309.504,235.624 
			128.998,129.956 309.504,235.624 203.833,416.132 309.504,235.624 415.177,55.118 309.504,235.624 345.398,223.434 
			309.504,235.624 273.612,247.815 309.504,235.624 321.693,271.517 309.504,235.624 297.316,199.732 309.504,235.624 
			423.769,339.711 309.504,235.624 195.24,131.538 309.504,235.624 205.417,349.889 309.504,235.624 413.595,121.36 
			309.504,235.624 345.457,276.538 309.504,235.624 273.553,194.712 309.504,235.624 268.594,271.578 309.504,235.624 
			350.416,199.673 309.504,235.624 415.239,242.034 309.504,235.624 203.765,229.215 309.504,235.624 303.098,341.362 
			309.504,235.624 315.912,129.888 309.504,235.624 350.816,236.397 309.504,235.624 268.192,234.853 309.504,235.624 
			308.732,276.935 309.504,235.624 310.277,194.315 309.504,235.624 411.243,239.575 309.504,235.624 207.766,231.674 
			309.504,235.624 305.553,337.365 309.504,235.624 313.457,133.885 309.504,235.624 461.72,362.183 309.504,235.624 
			157.29,109.067 309.504,235.624 182.947,387.84 309.504,235.624 436.063,83.41 		"/>
	</g>
</g>
</svg>
