<?xml version="1.0" encoding="utf-8"?>
<!-- Generator: Adobe Illustrator 16.0.0, SVG Export Plug-In . SVG Version: 6.00 Build 0)  -->
<!DOCTYPE svg PUBLIC "-//W3C//DTD SVG 1.1//EN" "http://www.w3.org/Graphics/SVG/1.1/DTD/svg11.dtd">
<svg version="1.1" id="Calque_1" xmlns="http://www.w3.org/2000/svg" xmlns:xlink="http://www.w3.org/1999/xlink" x="0px" y="0px"
	 width="36.298px" height="46.085px" viewBox="0 0 36.298 46.085" enable-background="new 0 0 36.298 46.085" xml:space="preserve">
<g>
	<defs>
		<rect id="SVGID_1_" width="36.298" height="46.085"/>
	</defs>
	<clipPath id="SVGID_2_">
		<use xlink:href="#SVGID_1_"  overflow="visible"/>
	</clipPath>
	<rect x="0.104" clip-path="url(#SVGID_2_)" fill="#010202" width="36.194" height="46.085"/>
	<g clip-path="url(#SVGID_2_)">
		<defs>
			<rect id="SVGID_3_" width="36.298" height="46.085"/>
		</defs>
		<clipPath id="SVGID_4_">
			<use xlink:href="#SVGID_3_"  overflow="visible"/>
		</clipPath>
		<g opacity="0.7" clip-path="url(#SVGID_4_)">
			<g>
				<defs>
					<rect id="SVGID_5_" x="5.29" y="5.626" width="6.481" height="6.482"/>
				</defs>
				<clipPath id="SVGID_6_">
					<use xlink:href="#SVGID_5_"  overflow="visible"/>
				</clipPath>
				<polygon clip-path="url(#SVGID_6_)" fill="#FFFFFF" points="11.771,12.108 5.29,5.626 11.771,5.626 				"/>
			</g>
		</g>
		<g opacity="0.9" clip-path="url(#SVGID_4_)">
			<g>
				<defs>
					<rect id="SVGID_7_" x="5.29" y="5.626" width="6.481" height="6.482"/>
				</defs>
				<clipPath id="SVGID_8_">
					<use xlink:href="#SVGID_7_"  overflow="visible"/>
				</clipPath>
				<polygon clip-path="url(#SVGID_8_)" fill="#FFFFFF" points="11.771,12.108 5.29,12.108 5.29,5.626 				"/>
			</g>
		</g>
		<g opacity="0.95" clip-path="url(#SVGID_4_)">
			<g>
				<defs>
					<rect id="SVGID_9_" x="5.29" y="18.59" width="6.481" height="6.481"/>
				</defs>
				<clipPath id="SVGID_10_">
					<use xlink:href="#SVGID_9_"  overflow="visible"/>
				</clipPath>
				<polygon clip-path="url(#SVGID_10_)" fill="#FFFFFF" points="11.771,25.072 5.29,18.59 11.771,18.59 				"/>
			</g>
		</g>
		<g opacity="0.4" clip-path="url(#SVGID_4_)">
			<g>
				<defs>
					<rect id="SVGID_11_" x="5.29" y="18.59" width="6.481" height="6.481"/>
				</defs>
				<clipPath id="SVGID_12_">
					<use xlink:href="#SVGID_11_"  overflow="visible"/>
				</clipPath>
				<polygon clip-path="url(#SVGID_12_)" fill="#FFFFFF" points="11.771,25.072 5.29,25.072 5.29,18.59 				"/>
			</g>
		</g>
		<g opacity="0.2" clip-path="url(#SVGID_4_)">
			<g>
				<defs>
					<rect id="SVGID_13_" x="5.29" y="12.108" width="6.481" height="6.482"/>
				</defs>
				<clipPath id="SVGID_14_">
					<use xlink:href="#SVGID_13_"  overflow="visible"/>
				</clipPath>
				<polygon clip-path="url(#SVGID_14_)" fill="#FFFFFF" points="5.29,18.59 11.771,12.108 5.29,12.108 				"/>
			</g>
		</g>
		<g opacity="0.8" clip-path="url(#SVGID_4_)">
			<g>
				<defs>
					<rect id="SVGID_15_" x="5.29" y="12.108" width="6.481" height="6.482"/>
				</defs>
				<clipPath id="SVGID_16_">
					<use xlink:href="#SVGID_15_"  overflow="visible"/>
				</clipPath>
				<polygon clip-path="url(#SVGID_16_)" fill="#FFFFFF" points="5.29,18.59 11.771,18.59 11.771,12.108 				"/>
			</g>
		</g>
		<g opacity="0.7" clip-path="url(#SVGID_4_)">
			<g>
				<defs>
					<rect id="SVGID_17_" x="5.29" y="25.072" width="6.481" height="6.482"/>
				</defs>
				<clipPath id="SVGID_18_">
					<use xlink:href="#SVGID_17_"  overflow="visible"/>
				</clipPath>
				<polygon clip-path="url(#SVGID_18_)" fill="#FFFFFF" points="5.29,31.554 11.771,25.072 5.29,25.072 				"/>
			</g>
		</g>
		<g opacity="0.45" clip-path="url(#SVGID_4_)">
			<g>
				<defs>
					<rect id="SVGID_19_" x="5.29" y="25.072" width="6.481" height="6.482"/>
				</defs>
				<clipPath id="SVGID_20_">
					<use xlink:href="#SVGID_19_"  overflow="visible"/>
				</clipPath>
				<polygon clip-path="url(#SVGID_20_)" fill="#FFFFFF" points="5.29,31.554 11.771,31.554 11.771,25.072 				"/>
			</g>
		</g>
		<g opacity="0.9" clip-path="url(#SVGID_4_)">
			<g>
				<defs>
					<rect id="SVGID_21_" x="18.252" y="5.626" width="6.482" height="6.482"/>
				</defs>
				<clipPath id="SVGID_22_">
					<use xlink:href="#SVGID_21_"  overflow="visible"/>
				</clipPath>
				<polygon clip-path="url(#SVGID_22_)" fill="#FFFFFF" points="24.734,12.108 18.252,5.626 24.734,5.626 				"/>
			</g>
		</g>
		<g opacity="0.45" clip-path="url(#SVGID_4_)">
			<g>
				<defs>
					<rect id="SVGID_23_" x="18.252" y="5.626" width="6.482" height="6.482"/>
				</defs>
				<clipPath id="SVGID_24_">
					<use xlink:href="#SVGID_23_"  overflow="visible"/>
				</clipPath>
				<polygon clip-path="url(#SVGID_24_)" fill="#FFFFFF" points="24.734,12.108 18.252,12.108 18.252,5.626 				"/>
			</g>
		</g>
		<g opacity="0.9" clip-path="url(#SVGID_4_)">
			<g>
				<defs>
					<rect id="SVGID_25_" x="19.869" y="18.602" width="2.533" height="3.188"/>
				</defs>
				<clipPath id="SVGID_26_">
					<use xlink:href="#SVGID_25_"  overflow="visible"/>
				</clipPath>
				<polygon clip-path="url(#SVGID_26_)" fill="#FFFFFF" points="19.869,18.602 22.401,21.791 22.401,18.602 				"/>
			</g>
		</g>
		<g opacity="0.5" clip-path="url(#SVGID_4_)">
			<g>
				<defs>
					<rect id="SVGID_27_" x="18.252" y="20.368" width="3.784" height="4.718"/>
				</defs>
				<clipPath id="SVGID_28_">
					<use xlink:href="#SVGID_27_"  overflow="visible"/>
				</clipPath>
				<polygon clip-path="url(#SVGID_28_)" fill="#FFFFFF" points="18.252,20.368 18.252,25.085 22.036,25.085 				"/>
			</g>
		</g>
		<g opacity="0.3" clip-path="url(#SVGID_4_)">
			<g>
				<defs>
					<rect id="SVGID_29_" x="18.252" y="12.095" width="6.482" height="5.594"/>
				</defs>
				<clipPath id="SVGID_30_">
					<use xlink:href="#SVGID_29_"  overflow="visible"/>
				</clipPath>
				<polygon clip-path="url(#SVGID_30_)" fill="#FFFFFF" points="19.155,17.689 22.401,14.441 22.401,12.095 24.722,12.095 
					24.734,12.095 18.252,12.095 18.252,16.523 				"/>
			</g>
		</g>
		<g opacity="0.7" clip-path="url(#SVGID_4_)">
			<g>
				<defs>
					<rect id="SVGID_31_" x="24.722" y="12.108" width="0.013" height="0.013"/>
				</defs>
				<clipPath id="SVGID_32_">
					<use xlink:href="#SVGID_31_"  overflow="visible"/>
				</clipPath>
				<polygon clip-path="url(#SVGID_32_)" fill="#FFFFFF" points="24.722,12.121 24.734,12.121 24.734,12.108 				"/>
			</g>
		</g>
		<g opacity="0.7" clip-path="url(#SVGID_4_)">
			<g>
				<defs>
					<rect id="SVGID_33_" x="19.155" y="14.441" width="3.247" height="4.161"/>
				</defs>
				<clipPath id="SVGID_34_">
					<use xlink:href="#SVGID_33_"  overflow="visible"/>
				</clipPath>
				<polygon clip-path="url(#SVGID_34_)" fill="#FFFFFF" points="19.155,17.694 19.869,18.602 22.401,18.602 22.401,14.441 				"/>
			</g>
		</g>
		<g opacity="0.9" clip-path="url(#SVGID_4_)">
			<g>
				<defs>
					<rect id="SVGID_35_" x="18.252" y="25.072" width="6.482" height="6.482"/>
				</defs>
				<clipPath id="SVGID_36_">
					<use xlink:href="#SVGID_35_"  overflow="visible"/>
				</clipPath>
				<polygon clip-path="url(#SVGID_36_)" fill="#FFFFFF" points="18.252,31.554 24.734,25.072 18.252,25.072 				"/>
			</g>
		</g>
		<g opacity="0.7" clip-path="url(#SVGID_4_)">
			<g>
				<defs>
					<rect id="SVGID_37_" x="18.252" y="25.072" width="6.482" height="6.482"/>
				</defs>
				<clipPath id="SVGID_38_">
					<use xlink:href="#SVGID_37_"  overflow="visible"/>
				</clipPath>
				<polygon clip-path="url(#SVGID_38_)" fill="#FFFFFF" points="18.252,31.554 24.734,31.554 24.734,25.072 				"/>
			</g>
		</g>
		<g opacity="0.3" clip-path="url(#SVGID_4_)">
			<g>
				<defs>
					<rect id="SVGID_39_" x="11.771" y="5.626" width="6.482" height="6.482"/>
				</defs>
				<clipPath id="SVGID_40_">
					<use xlink:href="#SVGID_39_"  overflow="visible"/>
				</clipPath>
				<polygon clip-path="url(#SVGID_40_)" fill="#FFFFFF" points="11.771,12.108 18.252,5.626 11.771,5.626 				"/>
			</g>
		</g>
		<g opacity="0.95" clip-path="url(#SVGID_4_)">
			<g>
				<defs>
					<rect id="SVGID_41_" x="11.771" y="5.626" width="6.482" height="6.482"/>
				</defs>
				<clipPath id="SVGID_42_">
					<use xlink:href="#SVGID_41_"  overflow="visible"/>
				</clipPath>
				<polygon clip-path="url(#SVGID_42_)" fill="#FFFFFF" points="11.771,12.108 18.252,12.108 18.252,5.626 				"/>
			</g>
		</g>
		<g opacity="0.55" clip-path="url(#SVGID_4_)">
			<g>
				<defs>
					<rect id="SVGID_43_" x="14.104" y="18.602" width="3.356" height="4.137"/>
				</defs>
				<clipPath id="SVGID_44_">
					<use xlink:href="#SVGID_43_"  overflow="visible"/>
				</clipPath>
				<polygon clip-path="url(#SVGID_44_)" fill="#FFFFFF" points="17.46,19.389 16.823,18.602 14.104,18.602 14.104,22.739 				"/>
			</g>
		</g>
		<g opacity="0.7" clip-path="url(#SVGID_4_)">
			<g>
				<defs>
					<rect id="SVGID_45_" x="14.104" y="19.381" width="4.148" height="5.704"/>
				</defs>
				<clipPath id="SVGID_46_">
					<use xlink:href="#SVGID_45_"  overflow="visible"/>
				</clipPath>
				<polygon clip-path="url(#SVGID_46_)" fill="#FFFFFF" points="17.46,19.381 14.104,22.739 14.104,25.085 18.252,25.085 
					18.252,20.368 				"/>
			</g>
		</g>
		<g opacity="0.8" clip-path="url(#SVGID_4_)">
			<g>
				<defs>
					<rect id="SVGID_47_" x="11.771" y="12.095" width="6.482" height="4.428"/>
				</defs>
				<clipPath id="SVGID_48_">
					<use xlink:href="#SVGID_47_"  overflow="visible"/>
				</clipPath>
				<polygon clip-path="url(#SVGID_48_)" fill="#FFFFFF" points="14.749,12.095 18.252,16.523 18.252,12.095 11.771,12.095 
					11.784,12.095 				"/>
			</g>
		</g>
		<g opacity="0.7" clip-path="url(#SVGID_4_)">
			<g>
				<defs>
					<rect id="SVGID_49_" x="14.104" y="15.21" width="2.718" height="3.392"/>
				</defs>
				<clipPath id="SVGID_50_">
					<use xlink:href="#SVGID_49_"  overflow="visible"/>
				</clipPath>
				<polygon clip-path="url(#SVGID_50_)" fill="#FFFFFF" points="16.823,18.602 14.104,15.21 14.104,18.602 				"/>
			</g>
		</g>
		<g opacity="0.7" clip-path="url(#SVGID_4_)">
			<g>
				<defs>
					<rect id="SVGID_51_" x="11.771" y="12.108" width="0.014" height="0.013"/>
				</defs>
				<clipPath id="SVGID_52_">
					<use xlink:href="#SVGID_51_"  overflow="visible"/>
				</clipPath>
				<polygon clip-path="url(#SVGID_52_)" fill="#FFFFFF" points="11.771,12.108 11.771,12.121 11.784,12.121 				"/>
			</g>
		</g>
		<g opacity="0.5" clip-path="url(#SVGID_4_)">
			<g>
				<defs>
					<rect id="SVGID_53_" x="11.771" y="25.072" width="6.482" height="6.482"/>
				</defs>
				<clipPath id="SVGID_54_">
					<use xlink:href="#SVGID_53_"  overflow="visible"/>
				</clipPath>
				<polygon clip-path="url(#SVGID_54_)" fill="#FFFFFF" points="18.252,31.554 11.771,25.072 18.252,25.072 				"/>
			</g>
		</g>
		<g opacity="0.3" clip-path="url(#SVGID_4_)">
			<g>
				<defs>
					<rect id="SVGID_55_" x="11.771" y="25.072" width="6.482" height="6.482"/>
				</defs>
				<clipPath id="SVGID_56_">
					<use xlink:href="#SVGID_55_"  overflow="visible"/>
				</clipPath>
				<polygon clip-path="url(#SVGID_56_)" fill="#FFFFFF" points="18.252,31.554 11.771,31.554 11.771,25.072 				"/>
			</g>
		</g>
		<g opacity="0.25" clip-path="url(#SVGID_4_)">
			<g>
				<defs>
					<rect id="SVGID_57_" x="24.734" y="5.626" width="6.481" height="6.482"/>
				</defs>
				<clipPath id="SVGID_58_">
					<use xlink:href="#SVGID_57_"  overflow="visible"/>
				</clipPath>
				<polygon clip-path="url(#SVGID_58_)" fill="#FFFFFF" points="24.734,12.108 31.216,5.626 24.734,5.626 				"/>
			</g>
		</g>
		<g opacity="0.7" clip-path="url(#SVGID_4_)">
			<g>
				<defs>
					<rect id="SVGID_59_" x="24.734" y="5.626" width="6.481" height="6.482"/>
				</defs>
				<clipPath id="SVGID_60_">
					<use xlink:href="#SVGID_59_"  overflow="visible"/>
				</clipPath>
				<polygon clip-path="url(#SVGID_60_)" fill="#FFFFFF" points="24.734,12.108 31.216,12.108 31.216,5.626 				"/>
			</g>
		</g>
		<g opacity="0.5" clip-path="url(#SVGID_4_)">
			<g>
				<defs>
					<rect id="SVGID_61_" x="24.734" y="18.59" width="6.481" height="6.481"/>
				</defs>
				<clipPath id="SVGID_62_">
					<use xlink:href="#SVGID_61_"  overflow="visible"/>
				</clipPath>
				<polygon clip-path="url(#SVGID_62_)" fill="#FFFFFF" points="24.734,25.072 31.216,18.59 24.734,18.59 				"/>
			</g>
		</g>
		<g opacity="0.7" clip-path="url(#SVGID_4_)">
			<g>
				<defs>
					<rect id="SVGID_63_" x="24.734" y="18.59" width="6.481" height="6.481"/>
				</defs>
				<clipPath id="SVGID_64_">
					<use xlink:href="#SVGID_63_"  overflow="visible"/>
				</clipPath>
				<polygon clip-path="url(#SVGID_64_)" fill="#FFFFFF" points="24.734,25.072 31.216,25.072 31.216,18.59 				"/>
			</g>
		</g>
		<g opacity="0.25" clip-path="url(#SVGID_4_)">
			<g>
				<defs>
					<rect id="SVGID_65_" x="24.734" y="12.108" width="6.481" height="6.482"/>
				</defs>
				<clipPath id="SVGID_66_">
					<use xlink:href="#SVGID_65_"  overflow="visible"/>
				</clipPath>
				<polygon clip-path="url(#SVGID_66_)" fill="#FFFFFF" points="31.216,18.59 24.734,12.108 31.216,12.108 				"/>
			</g>
		</g>
		<g opacity="0.9" clip-path="url(#SVGID_4_)">
			<g>
				<defs>
					<rect id="SVGID_67_" x="24.734" y="12.108" width="6.481" height="6.482"/>
				</defs>
				<clipPath id="SVGID_68_">
					<use xlink:href="#SVGID_67_"  overflow="visible"/>
				</clipPath>
				<polygon clip-path="url(#SVGID_68_)" fill="#FFFFFF" points="31.216,18.59 24.734,18.59 24.734,12.108 				"/>
			</g>
		</g>
		<g opacity="0.45" clip-path="url(#SVGID_4_)">
			<g>
				<defs>
					<rect id="SVGID_69_" x="24.734" y="25.072" width="6.481" height="6.482"/>
				</defs>
				<clipPath id="SVGID_70_">
					<use xlink:href="#SVGID_69_"  overflow="visible"/>
				</clipPath>
				<polygon clip-path="url(#SVGID_70_)" fill="#FFFFFF" points="31.216,31.554 24.734,25.072 31.216,25.072 				"/>
			</g>
		</g>
		<g opacity="0.85" clip-path="url(#SVGID_4_)">
			<g>
				<defs>
					<rect id="SVGID_71_" x="24.734" y="25.072" width="6.481" height="6.482"/>
				</defs>
				<clipPath id="SVGID_72_">
					<use xlink:href="#SVGID_71_"  overflow="visible"/>
				</clipPath>
				<polygon clip-path="url(#SVGID_72_)" fill="#FFFFFF" points="31.216,31.554 24.734,31.554 24.734,25.072 				"/>
			</g>
		</g>
		<path clip-path="url(#SVGID_4_)" fill="#FFFFFF" d="M7.066,35.587c-0.153-0.146-0.379-0.226-0.577-0.226
			c-0.486,0-0.781,0.369-0.781,0.835c0,0.373,0.217,0.759,0.781,0.759c0.178,0,0.334-0.038,0.512-0.182v-0.401h-0.58V35.99h0.972
			v0.955c-0.224,0.257-0.506,0.409-0.904,0.409c-0.853,0-1.199-0.562-1.199-1.157c0-0.638,0.398-1.229,1.199-1.229
			c0.305,0,0.609,0.117,0.842,0.347L7.066,35.587z"/>
		<path clip-path="url(#SVGID_4_)" fill="#FFFFFF" d="M9.84,37.301H9.351l-0.658-0.757H8.258v0.757H7.831V35.03
			c0.36,0,0.719,0.004,1.079,0.004c0.535,0.003,0.817,0.359,0.817,0.753c0,0.311-0.143,0.624-0.574,0.713l0.688,0.773V37.301z
			 M8.258,35.432v0.726h0.651c0.272,0,0.389-0.182,0.389-0.362s-0.119-0.363-0.389-0.363H8.258z"/>
		<path clip-path="url(#SVGID_4_)" fill="#FFFFFF" d="M11.774,36.875h-1.186l-0.195,0.427H9.93l1.018-2.268h0.466l1.018,2.268
			h-0.466L11.774,36.875z M11.181,35.51l-0.422,0.966h0.843L11.181,35.51z"/>
		<polygon clip-path="url(#SVGID_4_)" fill="#FFFFFF" points="14.263,36.56 14.263,35.034 14.691,35.034 14.691,37.301 
			14.344,37.301 13.139,35.792 13.139,37.301 12.711,37.301 12.711,35.034 13.058,35.034 		"/>
		<path clip-path="url(#SVGID_4_)" fill="#FFFFFF" d="M17.254,36.148c0.01,0.573-0.34,1.153-1.134,1.153h-0.891v-2.268h0.891
			C16.898,35.034,17.245,35.587,17.254,36.148 M15.654,36.891h0.466c0.515,0,0.72-0.376,0.71-0.746
			c-0.01-0.354-0.217-0.707-0.71-0.707h-0.466V36.891z"/>
		<polygon clip-path="url(#SVGID_4_)" fill="#FFFFFF" points="19.361,37.301 17.663,37.301 17.663,35.034 19.361,35.034 
			19.361,35.449 18.087,35.449 18.087,35.97 19.316,35.97 19.316,36.369 18.087,36.369 18.087,36.881 19.361,36.881 		"/>
		<path clip-path="url(#SVGID_4_)" fill="#FFFFFF" d="M22.301,37.301h-1.698v-2.268h1.698v0.415h-1.273v0.521h1.228v0.398h-1.228
			v0.513h1.273V37.301z M21.986,34.344H21.52l-0.239,0.439v0.02h0.35l0.356-0.444V34.344z"/>
		<path clip-path="url(#SVGID_4_)" fill="#FFFFFF" d="M24.673,37.017c-0.233,0.23-0.534,0.337-0.861,0.337
			c-0.844,0-1.199-0.58-1.203-1.17c-0.003-0.593,0.383-1.197,1.203-1.197c0.308,0,0.599,0.118,0.832,0.348l-0.285,0.275
			c-0.149-0.146-0.35-0.214-0.547-0.214c-0.548,0-0.785,0.409-0.781,0.788c0.003,0.376,0.22,0.769,0.781,0.769
			c0.197,0,0.421-0.082,0.57-0.231L24.673,37.017z"/>
		<path clip-path="url(#SVGID_4_)" fill="#FFFFFF" d="M27.146,36.18c-0.006,0.588-0.365,1.174-1.163,1.174s-1.167-0.574-1.167-1.17
			c0-0.717,0.519-1.197,1.178-1.197C26.767,34.995,27.152,35.591,27.146,36.18 M25.982,36.962c0.534,0,0.735-0.402,0.743-0.774
			c0.006-0.379-0.212-0.802-0.732-0.812c-0.484,0-0.769,0.364-0.756,0.813C25.247,36.563,25.448,36.962,25.982,36.962"/>
		<polygon clip-path="url(#SVGID_4_)" fill="#FFFFFF" points="27.976,35.034 27.976,36.906 29.142,36.906 29.142,37.301 
			27.548,37.301 27.548,35.034 		"/>
		<polygon clip-path="url(#SVGID_4_)" fill="#FFFFFF" points="31.165,37.301 29.466,37.301 29.466,35.034 31.165,35.034 
			31.165,35.449 29.892,35.449 29.892,35.97 31.12,35.97 31.12,36.369 29.892,36.369 29.892,36.881 31.165,36.881 		"/>
		<path clip-path="url(#SVGID_4_)" fill="#FFFFFF" d="M7.317,40.044c0.009,0.573-0.341,1.152-1.134,1.152H5.291V38.93h0.892
			C6.96,38.93,7.307,39.484,7.317,40.044 M5.715,40.787h0.467c0.515,0,0.719-0.376,0.709-0.746c-0.01-0.352-0.217-0.706-0.709-0.706
			H5.715V40.787z"/>
		<path clip-path="url(#SVGID_4_)" fill="#FFFFFF" d="M9.686,38.932v1.301c0,0.671-0.411,1.015-0.982,1.015
			c-0.543,0-1.007-0.332-1.007-1.015v-1.301H8.12v1.301c0,0.408,0.233,0.626,0.587,0.626c0.353,0,0.554-0.237,0.554-0.626v-1.301
			H9.686z"/>
		<polygon clip-path="url(#SVGID_4_)" fill="#FFFFFF" points="12.531,40.458 12.531,38.93 12.958,38.93 12.958,41.197 
			12.611,41.197 11.406,39.689 11.406,41.197 10.978,41.197 10.978,38.93 11.325,38.93 		"/>
		<path clip-path="url(#SVGID_4_)" fill="#FFFFFF" d="M15.458,38.932v1.301c0,0.671-0.412,1.015-0.983,1.015
			c-0.544,0-1.008-0.332-1.008-1.015v-1.301h0.425v1.301c0,0.408,0.234,0.626,0.587,0.626s0.554-0.237,0.554-0.626v-1.301H15.458z"
			/>
		<polygon clip-path="url(#SVGID_4_)" fill="#FFFFFF" points="17.94,39.555 17.201,40.54 17.117,40.54 16.394,39.552 16.394,41.201 
			15.966,41.201 15.966,38.932 16.459,38.932 17.168,39.909 17.878,38.932 18.367,38.932 18.367,41.201 17.94,41.201 		"/>
		<path clip-path="url(#SVGID_4_)" fill="#FFFFFF" d="M20.604,41.197h-1.699V38.93h1.699v0.415H19.33v0.521h1.229v0.398H19.33v0.512
			h1.274V41.197z M20.289,38.24h-0.466l-0.239,0.441V38.7h0.349l0.356-0.444V38.24z"/>
		<path clip-path="url(#SVGID_4_)" fill="#FFFFFF" d="M23.069,41.197h-0.488l-0.658-0.757h-0.434v0.757h-0.428v-2.271
			c0.359,0,0.719,0.004,1.078,0.004c0.535,0.002,0.816,0.359,0.816,0.752c0,0.311-0.143,0.624-0.573,0.714l0.687,0.773V41.197z
			 M21.489,39.328v0.728h0.65c0.272,0,0.389-0.183,0.389-0.362c0-0.182-0.119-0.365-0.389-0.365H21.489z"/>
		<rect x="23.42" y="38.93" clip-path="url(#SVGID_4_)" fill="#FFFFFF" width="0.425" height="2.267"/>
		<path clip-path="url(#SVGID_4_)" fill="#FFFFFF" d="M26.583,40.036c0.004,0.258-0.064,0.527-0.21,0.737l0.269,0.266l-0.301,0.303
			l-0.276-0.273c-0.171,0.111-0.389,0.17-0.645,0.17c-0.808,0-1.164-0.588-1.167-1.178c-0.004-0.592,0.369-1.185,1.167-1.185
			C26.216,38.875,26.573,39.451,26.583,40.036 M24.675,40.072c0.006,0.371,0.252,0.77,0.745,0.77c0.513,0,0.758-0.431,0.742-0.82
			c-0.017-0.365-0.208-0.761-0.742-0.761S24.668,39.689,24.675,40.072"/>
		<path clip-path="url(#SVGID_4_)" fill="#FFFFFF" d="M28.949,38.932v1.301c0,0.671-0.411,1.015-0.981,1.015
			c-0.545,0-1.008-0.332-1.008-1.015v-1.301h0.424v1.301c0,0.408,0.232,0.626,0.587,0.626c0.353,0,0.554-0.237,0.554-0.626v-1.301
			H28.949z"/>
		<polygon clip-path="url(#SVGID_4_)" fill="#FFFFFF" points="31.156,41.197 29.458,41.197 29.458,38.93 31.156,38.93 
			31.156,39.345 29.883,39.345 29.883,39.867 31.11,39.867 31.11,40.265 29.883,40.265 29.883,40.777 31.156,40.777 		"/>
	</g>
</g>
</svg>
