<?xml version="1.0" encoding="utf-8"?>
<!-- Generator: Adobe Illustrator 16.0.0, SVG Export Plug-In . SVG Version: 6.00 Build 0)  -->
<!DOCTYPE svg PUBLIC "-//W3C//DTD SVG 1.1//EN" "http://www.w3.org/Graphics/SVG/1.1/DTD/svg11.dtd">
<svg version="1.1" id="Calque_1" xmlns="http://www.w3.org/2000/svg" xmlns:xlink="http://www.w3.org/1999/xlink" x="0px" y="0px"
	 width="45.848px" height="45.848px" viewBox="0 0 45.848 45.848" enable-background="new 0 0 45.848 45.848" xml:space="preserve">
<g>
	<g id="Flat_copy_5_14_">
		<g>
			
				<rect x="6.714" y="6.715" transform="matrix(-0.7071 0.7071 -0.7071 -0.7071 55.3434 22.9247)" fill="#010202" width="32.419" height="32.419"/>
			<polygon fill="#F9AF15" points="26.249,5.917 26.112,3.184 42.664,19.738 39.934,19.601 			"/>
			<polygon fill="#F9AF15" points="19.603,39.931 19.738,42.661 3.188,26.11 5.919,26.246 			"/>
		</g>
	</g>
	<path fill="#FFFFFF" d="M31.843,20.063v7.863c0,0.437-0.155,0.809-0.465,1.12c-0.311,0.311-0.683,0.464-1.12,0.464h-14.58
		c-0.436,0-0.808-0.153-1.117-0.464c-0.313-0.312-0.467-0.684-0.467-1.12v-7.863c0.291,0.323,0.623,0.61,1,0.86
		c2.391,1.625,4.032,2.765,4.923,3.419c0.376,0.276,0.682,0.493,0.916,0.646c0.235,0.155,0.546,0.315,0.936,0.478
		c0.392,0.161,0.753,0.242,1.09,0.242h0.021c0.336,0,0.698-0.081,1.089-0.242c0.389-0.162,0.7-0.322,0.935-0.478
		c0.235-0.153,0.541-0.37,0.917-0.646c1.121-0.813,2.767-1.951,4.933-3.419C31.229,20.667,31.559,20.378,31.843,20.063z
		 M31.843,17.15c0,0.521-0.16,1.021-0.484,1.497c-0.325,0.476-0.727,0.881-1.21,1.218c-2.481,1.723-4.027,2.796-4.635,3.219
		c-0.066,0.046-0.206,0.147-0.421,0.302c-0.214,0.156-0.394,0.28-0.535,0.376s-0.314,0.204-0.515,0.323
		c-0.2,0.117-0.392,0.207-0.569,0.268c-0.18,0.059-0.344,0.087-0.494,0.087h-0.021c-0.151,0-0.316-0.028-0.495-0.087
		c-0.178-0.061-0.367-0.15-0.569-0.268c-0.2-0.119-0.374-0.228-0.515-0.323c-0.143-0.096-0.32-0.22-0.535-0.376
		c-0.215-0.154-0.355-0.256-0.421-0.302c-0.601-0.423-1.465-1.026-2.595-1.807c-1.13-0.783-1.807-1.255-2.031-1.412
		c-0.41-0.276-0.795-0.659-1.158-1.144c-0.363-0.486-0.545-0.938-0.545-1.354c0-0.514,0.137-0.943,0.411-1.288
		c0.273-0.342,0.666-0.514,1.173-0.514h14.58c0.429,0,0.801,0.155,1.115,0.465C31.686,16.34,31.843,16.714,31.843,17.15z"/>
</g>
</svg>
