<?xml version="1.0" encoding="utf-8"?>
<!-- Generator: Adobe Illustrator 16.0.0, SVG Export Plug-In . SVG Version: 6.00 Build 0)  -->
<!DOCTYPE svg PUBLIC "-//W3C//DTD SVG 1.1//EN" "http://www.w3.org/Graphics/SVG/1.1/DTD/svg11.dtd">
<svg version="1.1" id="Calque_1" xmlns="http://www.w3.org/2000/svg" xmlns:xlink="http://www.w3.org/1999/xlink" x="0px" y="0px"
	 width="190.347px" height="143.589px" viewBox="0 0 190.347 143.589" enable-background="new 0 0 190.347 143.589"
	 xml:space="preserve">
<g>
	<g>
		<g id="FOUND">
			<path fill="#F9AF15" stroke="#000000" stroke-width="0.2" stroke-miterlimit="10" d="M85.114,101.289H99.32v1.578H86.858v11.84
				h11.59v1.578h-11.59v14.665h-1.744V101.289z"/>
			<path fill="#F9AF15" stroke="#000000" stroke-width="0.2" stroke-miterlimit="10" d="M120.214,116.119
				c0,13.004-5.359,15.329-9.556,15.329c-5.69,0-9.596-3.821-9.596-15.329c0-11.507,4.154-15.328,9.596-15.328
				C116.558,100.791,120.214,104.612,120.214,116.119z M102.807,116.119c0,8.143,1.662,13.918,7.852,13.918
				c5.442,0,7.811-4.487,7.811-13.918c0-8.018-1.786-13.916-7.811-13.916C104.843,102.203,102.807,107.977,102.807,116.119z"/>
			<path fill="#F9AF15" stroke="#000000" stroke-width="0.2" stroke-miterlimit="10" d="M125.694,123.099
				c0,4.154,1.87,6.938,6.481,6.938c4.278,0,6.479-2.784,6.479-6.938v-21.81h1.745v21.477c0,6.688-4.112,8.683-8.225,8.683
				c-4.113,0-8.226-1.579-8.226-8.683v-21.477h1.744V123.099z"/>
			<path fill="#F9AF15" stroke="#000000" stroke-width="0.2" stroke-miterlimit="10" d="M147.127,101.289l12.92,26.919h0.083
				v-26.919h1.745v29.661h-2.285l-12.961-26.919h-0.083v26.919h-1.745v-29.661H147.127z"/>
			<path fill="#F9AF15" stroke="#000000" stroke-width="0.2" stroke-miterlimit="10" d="M166.65,101.289h6.771
				c6.272,0,10.677,2.658,10.677,14.83s-5.068,14.831-10.677,14.831h-6.771V101.289z M173.421,129.537
				c6.314,0,8.932-4.32,8.932-13.418s-2.118-13.418-8.932-13.418h-5.026v26.836H173.421z"/>
		</g>
		<g id="_x34_04">
			<g id="_x34_">
				<path fill="#FFFFFF" d="M29.696,53.736H0v-3.905L29.285,0.612h4.316v49.63h8.939v3.494h-8.939v19.626h-3.905V53.736z
					 M29.696,7.292h-0.206L3.904,50.243h25.792V7.292z"/>
			</g>
			<path id="_x30_" fill="#FFFFFF" d="M93.894,3.644c19.622,0,35.586,15.964,35.586,35.586c0,19.622-15.964,35.585-35.586,35.585
				S58.308,58.852,58.308,39.23C58.308,19.607,74.272,3.644,93.894,3.644 M93.894,0C72.228,0,54.665,17.564,54.665,39.23
				c0,21.666,17.563,39.229,39.229,39.229s39.229-17.563,39.229-39.229C133.124,17.564,115.56,0,93.894,0L93.894,0z"/>
			<g id="_x34__1_">
				<path fill="#FFFFFF" d="M172.769,53.736h-29.696v-3.905l29.285-49.219h4.315v49.63h8.939v3.494h-8.939v19.626h-3.904V53.736z
					 M172.769,7.292h-0.206l-25.586,42.951h25.792V7.292z"/>
			</g>
		</g>
		<g id="CODE">
			<path fill="#FFFFFF" d="M17.908,109.805c0-3.988-2.119-7.602-6.48-7.602c-5.899,0-7.852,5.525-7.852,13.875
				c0,7.977,1.62,13.959,7.602,13.959c5.733,0,7.104-6.73,7.104-9.057h1.745c0,3.489-1.745,10.468-9.14,10.468
				c-6.438,0-9.056-5.69-9.056-15.288c0-9.305,2.618-15.369,9.514-15.369c6.938,0,8.308,6.105,8.308,9.014H17.908z"/>
			<path fill="#FFFFFF" d="M41.75,116.119c0,13.004-5.358,15.329-9.554,15.329c-5.691,0-9.597-3.821-9.597-15.329
				c0-11.507,4.155-15.328,9.597-15.328C38.095,100.791,41.75,104.612,41.75,116.119z M24.345,116.119
				c0,8.143,1.662,13.918,7.852,13.918c5.442,0,7.81-4.487,7.81-13.918c0-8.018-1.787-13.916-7.81-13.916
				C26.38,102.203,24.345,107.977,24.345,116.119z"/>
			<path fill="#FFFFFF" d="M45.861,101.289h6.771c6.273,0,10.677,2.658,10.677,14.83S58.24,130.95,52.631,130.95h-6.771V101.289z
				 M52.631,129.537c6.315,0,8.932-4.32,8.932-13.418s-2.118-13.418-8.932-13.418h-5.026v26.836H52.631z"/>
			<path fill="#FFFFFF" d="M67.418,101.289h14.166v1.578H69.163v11.84h11.591v1.578H69.163v13.086h12.796v1.579h-14.54V101.289z"/>
		</g>
		<g id="LIGNE">
			<rect x="0.496" y="143.043" fill="#FFFFFF" width="189.862" height="0.546"/>
		</g>
	</g>
	<circle fill="#F9AF15" stroke="#000000" stroke-width="0.2" stroke-miterlimit="10" cx="79.958" cy="24.6" r="5.944"/>
	<circle fill="#F9AF15" stroke="#000000" stroke-width="0.2" stroke-miterlimit="10" cx="108.679" cy="24.6" r="5.943"/>
	<g>
		<defs>
			<rect id="SVGID_1_" x="45.957" y="45.777" width="98.941" height="46.314"/>
		</defs>
		<clipPath id="SVGID_2_">
			<use xlink:href="#SVGID_1_"  overflow="visible"/>
		</clipPath>
		
			<circle clip-path="url(#SVGID_2_)" fill="none" stroke="#F9AF15" stroke-width="5" stroke-miterlimit="10" cx="93.681" cy="39.166" r="25.399"/>
	</g>
</g>
</svg>
